<!-- icon666.com - MILLIONS vector ICONS FREE --><svg version="1.1" id="Capa_1" xmlns="http://www.w3.org/2000/svg" xmlns:xlink="http://www.w3.org/1999/xlink" x="0px" y="0px" viewBox="0 0 511.999 511.999" style="enable-background:new 0 0 511.999 511.999;" xml:space="preserve"><g><g><path d="M298.092,392.968c-1.778-11.66-10.314-20.958-21.24-23.137c-7.602-1.517-14.948,0.575-20.852,5.688 c-5.904-5.112-13.252-7.202-20.85-5.688c-10.926,2.177-19.462,11.476-21.24,23.136c-2.865,18.786,11.166,38.111,38.496,53.019 c1.12,0.611,2.356,0.917,3.594,0.917s2.474-0.305,3.594-0.917C286.922,431.078,300.955,411.754,298.092,392.968z M255.998,430.772 c-18.847-11.125-28.975-24.243-27.252-35.542c0.959-6.283,5.38-9.891,9.336-10.679c0.604-0.121,1.205-0.18,1.797-0.18 c3.678,0,7.072,2.304,9.701,6.642c1.36,2.244,3.793,3.615,6.418,3.615c2.624,0,5.058-1.371,6.418-3.615 c3.053-5.036,7.139-7.331,11.501-6.462c3.957,0.789,8.379,4.398,9.336,10.679C284.976,406.529,274.846,419.649,255.998,430.772z" fill="#000000" style="fill: rgb(61, 61, 61);"></path></g></g><g><g><circle cx="256" cy="138.141" r="7.808" fill="#000000" style="fill: rgb(61, 61, 61);"></circle></g></g><g><g><path d="M463.626,483.078c-1.464-3.877-5.793-5.83-9.673-4.368l-17.763,6.712l-36.249-97.839 c23.981-12.993,35.412-42.257,25.627-68.67l-28.856-77.885c42.678-49.96,60.109-103.874,49.082-152.231 c-8.379-36.745-32.999-66.985-65.86-80.895c-3.817-1.616-8.222,0.167-9.837,3.985c-1.615,3.816,0.169,8.22,3.985,9.836 c28.431,12.034,49.768,38.356,57.079,70.409c9.481,41.571-4.876,88.295-40.47,132.643l-21.961-59.275 c-1.119-3.019-3.345-5.415-6.268-6.746c-2.91-1.325-6.16-1.433-9.154-0.303l-81.251,30.701c-6.148,2.321-9.285,9.236-6.997,15.415 l36.573,98.711c-14.137,9.432-29.444,18.72-45.642,27.68c-16.245-8.984-31.548-18.268-45.628-27.665l11.728-31.655 c1.439-3.886-0.543-8.204-4.431-9.644c-3.889-1.442-8.204,0.543-9.645,4.43l-4.95,13.361l-75.554-28.548l28.77-77.653 l75.554,28.548l-13.922,37.577c-1.439,3.886,0.544,8.204,4.431,9.644c3.888,1.441,8.204-0.543,9.645-4.43l14.952-40.357 c2.288-6.178-0.849-13.093-6.995-15.415l-81.253-30.698c-2.993-1.131-6.243-1.023-9.153,0.302 c-2.924,1.331-5.149,3.727-6.269,6.747l-21.965,59.285c-40.523-50.53-53.422-104.33-35.318-149.098 c13.749-34,44.357-57.717,77.977-60.421c15.528-1.245,31.113,2.134,45.072,9.782c15.709,8.607,29.347,22.333,40.537,40.797 c1.36,2.244,3.793,3.615,6.418,3.615c2.624,0,5.058-1.371,6.418-3.615c21.354-35.234,51.664-53.203,85.367-50.599 c4.137,0.322,7.742-2.772,8.061-6.903c0.319-4.132-2.772-7.741-6.903-8.061c-35.716-2.764-69.078,14.628-92.942,48.031 C232.06,14.809,198.61-2.57,162.761,0.308C123.53,3.464,87.933,30.844,72.073,70.062c-21.057,52.072-5.282,114.175,43.215,170.966 l-28.856,77.884c-9.786,26.413,1.645,55.677,25.626,68.67l-36.249,97.839l-17.763-6.712c-3.877-1.463-8.208,0.49-9.673,4.368 c-1.465,3.877,0.49,8.208,4.368,9.673l49.659,18.763c0.873,0.33,1.771,0.486,2.652,0.486c3.031,0,5.886-1.85,7.021-4.854 c1.465-3.877-0.49-8.208-4.368-9.673l-17.854-6.746l36.246-97.833c4.027,0.925,8.113,1.386,12.194,1.386 c7.75,0,15.48-1.663,22.749-4.974c13.54-6.167,23.861-17.292,29.061-31.327l14.906-40.231c14.67,9.659,30.56,19.177,47.388,28.362 c1.12,0.611,2.357,0.918,3.595,0.918s2.475-0.306,3.595-0.918c16.782-9.159,32.677-18.683,47.402-28.377l14.912,40.247 c2.118,5.716,5.111,10.995,8.896,15.687c2.601,3.226,7.325,3.733,10.552,1.13c3.227-2.602,3.732-7.326,1.131-10.552 c-2.764-3.426-4.952-7.288-6.505-11.48l-21.824-58.903l47.111-17.8c0.047-0.018,0.095-0.035,0.142-0.054l28.302-10.693 l21.79,58.813c7.814,21.089-2.797,44.658-23.652,52.538c-8.05,3.043-16.664,3.419-24.911,1.091 c-3.989-1.126-8.136,1.194-9.261,5.183c-1.127,3.988,1.194,8.135,5.183,9.26c4.907,1.386,9.907,2.076,14.898,2.076 c4.076,0,8.146-0.462,12.152-1.381l36.246,97.833l-17.854,6.746c-3.876,1.465-5.831,5.795-4.367,9.673 c1.135,3.004,3.989,4.854,7.021,4.854c0.882,0,1.778-0.156,2.652-0.486l49.659-18.763 C463.136,491.285,465.091,486.954,463.626,483.078z M176.027,352.765c-3.8,10.258-11.332,18.386-21.206,22.882 c-9.754,4.442-20.643,4.804-30.662,1.018c-20.856-7.88-31.466-31.448-23.652-52.538l21.79-58.812l75.554,28.548L176.027,352.765z M308.933,279.787l-28.77-77.652l75.555-28.548l25.318,68.335c0.037,0.109,0.078,0.218,0.12,0.325l3.332,8.991L308.933,279.787z" fill="#000000" style="fill: rgb(61, 61, 61);"></path></g></g><g><g><path d="M302.498,146.064c-1.109-3.993-5.246-6.334-9.237-5.224c-6.469,1.795-15.849,5.816-23.807,14.775 c-4.869,5.482-8.513,12.15-10.535,19.28c-1.133,3.987,1.183,8.137,5.17,9.267c0.684,0.194,1.374,0.287,2.052,0.287 c3.271,0,6.278-2.155,7.215-5.458c1.411-4.97,3.941-9.608,7.318-13.41c5.526-6.223,12.077-9.024,16.6-10.28 C301.268,154.193,303.607,150.057,302.498,146.064z" fill="#000000" style="fill: rgb(61, 61, 61);"></path></g></g><g><g><path d="M253.083,174.897c-2.022-7.13-5.664-13.798-10.536-19.282c-7.96-8.959-17.34-12.98-23.808-14.775 c-3.992-1.109-8.13,1.231-9.237,5.225c-1.109,3.993,1.23,8.13,5.224,9.237c4.523,1.255,11.071,4.056,16.6,10.279 c3.379,3.804,5.909,8.441,7.317,13.408c0.938,3.304,3.944,5.46,7.216,5.46c0.677,0,1.367-0.092,2.051-0.286 C251.897,183.033,254.214,178.884,253.083,174.897z" fill="#000000" style="fill: rgb(61, 61, 61);"></path></g></g></svg>